<?xml version="1.0" encoding="utf-8"?>
<!-- Generator: Adobe Illustrator 24.0.1, SVG Export Plug-In . SVG Version: 6.00 Build 0)  -->
<svg version="1.2" baseProfile="tiny" id="Layer_1" xmlns="http://www.w3.org/2000/svg" xmlns:xlink="http://www.w3.org/1999/xlink"
	 x="0px" y="0px" viewBox="0 0 450.1 450" xml:space="preserve">
<g fill="#ffffff">
	<path fill-rule="evenodd" d="M19.3,225c0-113.6,92.2-205.8,205.8-205.8c113.6,0,205.8,92.2,205.8,205.8
		c0,113.6-92.2,205.8-205.8,205.8C111.5,430.8,19.3,338.6,19.3,225L19.3,225z M36.4,225c0-104.1,84.5-188.6,188.6-188.6
		c104.1,0,188.6,84.5,188.6,188.6S329.1,413.6,225,413.6C120.9,413.6,36.4,329.1,36.4,225L36.4,225z M233.6,307.8l64.5-79l12.6,11.6
		L225,345l-85.7-104.8l12.9-11.4l64.2,78.9V105h17.1V307.8L233.6,307.8z"/>
</g>
</svg>
